<svg xmlns="http://www.w3.org/2000/svg" width="1520" height="345" viewBox="40 120 1520 345"><defs><mask id="cut-w" maskUnits="userSpaceOnUse" x="-600" y="-60" width="2400" height="280"><rect x="-600" y="-60" width="2400" height="280" fill="#fff" /><rect x="-600" y="60.5" width="2400" height="28" fill="#000" /></mask><clipPath id="nc-w"><rect x="142.5" y="4.5" width="89.5" height="141" /></clipPath><linearGradient id="sg-s" gradientUnits="objectBoundingBox" x1="0" x2="1" y1="0" y2="0"><stop offset="0" stop-color="#00FFA3" stop-opacity="0" /><stop offset="0.3" stop-color="#00FFA3" stop-opacity="0.35" /><stop offset="0.72" stop-color="#00FFA3" stop-opacity="1" /><stop offset="1" stop-color="#00FFA3" stop-opacity="1" /></linearGradient></defs><g transform="translate(287.72 138.21) scale(0.87719)"><g mask="url(#cut-w)" fill="#FFFFFF"><path d="M128,4.5H142.5L232,122.44V4.5H246.5V145.5H232L142.5,27.56V145.5H128Z" /><path d="M683,4.5H797.5V19H747.5V145.5H733V19H683Z" /><rect x="855" y="4.5" width="14.5" height="141" /><g fill="none" stroke="#FFFFFF" stroke-width="14.5"><circle cx="387.5" cy="74.5" r="65.25" /><path d="M641.4,34.3 A65.25,65.25 0 1 0 641.4,114.7" /><path d="M1029.3,26 A43.75,30.75 0 0 0 946.75,40.25 C946.75,70 1033.5,78 1033.5,107.5 A46.5,33 0 0 1 948.8,125" /></g></g><filter id="gl-s" x="-10%" y="-400%" width="120%" height="900%"><feGaussianBlur stdDeviation="9" /><feMerge><feMergeNode /><feMergeNode in="SourceGraphic" /></feMerge></filter><polygon fill="url(#sg-s)" filter="url(#gl-s)" points="-72.5,73.3 1126.5,69.5 1146,74.5 1126.5,79.5 -72.5,75.7" /></g><path d="M474.47 349.37L474.47 372.90L503.88 372.90L503.88 349.37L498 349.37L498 343.49L492.12 343.49L492.12 337.61L486.24 337.61L486.24 343.49L480.35 343.49L480.35 349.37L474.47 349.37ZM503.88 425.84L503.88 396.43L474.47 396.43L474.47 425.84L450.94 425.84L450.94 337.61L456.82 337.61L456.82 331.72L462.71 331.72L462.71 325.84L468.59 325.84L468.59 319.96L474.47 319.96L474.47 314.08L480.35 314.08L480.35 308.20L498 308.20L498 314.08L503.88 314.08L503.88 319.96L509.76 319.96L509.76 325.84L515.65 325.84L515.65 331.72L521.53 331.72L521.53 337.61L527.41 337.61L527.41 425.84L503.88 425.84ZM594.47 396.43L594.47 402.31L612.12 402.31L612.12 396.43L618.00 396.43L618.00 384.67L600.35 384.67L600.35 361.14L641.53 361.14L641.53 408.20L635.65 408.20L635.65 419.96L623.88 419.96L623.88 425.84L582.71 425.84L582.71 419.96L570.94 419.96L570.94 408.20L565.06 408.20L565.06 325.84L570.94 325.84L570.94 314.08L582.71 314.08L582.71 308.20L623.88 308.20L623.88 314.08L635.65 314.08L635.65 325.84L641.53 325.84L641.53 349.37L618.00 349.37L618.00 337.61L612.12 337.61L612.12 331.72L594.47 331.72L594.47 337.61L588.59 337.61L588.59 396.43L594.47 396.43ZM702.71 378.78L702.71 402.31L749.76 402.31L749.76 425.84L679.18 425.84L679.18 308.20L749.76 308.20L749.76 331.72L702.71 331.72L702.71 355.25L738.00 355.25L738.00 378.78L702.71 378.78ZM834.47 408.20L834.47 396.43L828.59 396.43L828.59 384.67L822.71 384.67L822.71 372.90L816.82 372.90L816.82 361.14L810.94 361.14L810.94 425.84L787.41 425.84L787.41 308.20L816.82 308.20L816.82 319.96L822.71 319.96L822.71 331.72L828.59 331.72L828.59 343.49L834.47 343.49L834.47 355.25L840.35 355.25L840.35 367.02L846.24 367.02L846.24 378.78L852.12 378.78L852.12 308.20L875.65 308.20L875.65 425.84L846.24 425.84L846.24 419.96L840.35 419.96L840.35 408.20L834.47 408.20ZM913.29 331.72L913.29 308.20L983.88 308.20L983.88 331.72L960.35 331.72L960.35 425.84L936.82 425.84L936.82 331.72L913.29 331.72ZM1021.53 425.84L1021.53 308.20L1045.06 308.20L1045.06 425.84L1021.53 425.84ZM1112.12 396.43L1112.12 402.31L1129.76 402.31L1129.76 396.43L1135.65 396.43L1135.65 384.67L1159.18 384.67L1159.18 408.20L1153.29 408.20L1153.29 419.96L1141.53 419.96L1141.53 425.84L1100.35 425.84L1100.35 419.96L1088.59 419.96L1088.59 408.20L1082.71 408.20L1082.71 325.84L1088.59 325.84L1088.59 314.08L1100.35 314.08L1100.35 308.20L1141.53 308.20L1141.53 314.08L1153.29 314.08L1153.29 325.84L1159.18 325.84L1159.18 349.37L1135.65 349.37L1135.65 337.61L1129.76 337.61L1129.76 331.72L1112.12 331.72L1112.12 337.61L1106.24 337.61L1106.24 396.43L1112.12 396.43Z" fill="#04321F" /><path d="M466.47 341.37L466.47 364.90L495.88 364.90L495.88 341.37L490 341.37L490 335.49L484.12 335.49L484.12 329.61L478.24 329.61L478.24 335.49L472.35 335.49L472.35 341.37L466.47 341.37ZM495.88 417.84L495.88 388.43L466.47 388.43L466.47 417.84L442.94 417.84L442.94 329.61L448.82 329.61L448.82 323.72L454.71 323.72L454.71 317.84L460.59 317.84L460.59 311.96L466.47 311.96L466.47 306.08L472.35 306.08L472.35 300.20L490 300.20L490 306.08L495.88 306.08L495.88 311.96L501.76 311.96L501.76 317.84L507.65 317.84L507.65 323.72L513.53 323.72L513.53 329.61L519.41 329.61L519.41 417.84L495.88 417.84ZM586.47 388.43L586.47 394.31L604.12 394.31L604.12 388.43L610.00 388.43L610.00 376.67L592.35 376.67L592.35 353.14L633.53 353.14L633.53 400.20L627.65 400.20L627.65 411.96L615.88 411.96L615.88 417.84L574.71 417.84L574.71 411.96L562.94 411.96L562.94 400.20L557.06 400.20L557.06 317.84L562.94 317.84L562.94 306.08L574.71 306.08L574.71 300.20L615.88 300.20L615.88 306.08L627.65 306.08L627.65 317.84L633.53 317.84L633.53 341.37L610.00 341.37L610.00 329.61L604.12 329.61L604.12 323.72L586.47 323.72L586.47 329.61L580.59 329.61L580.59 388.43L586.47 388.43ZM694.71 370.78L694.71 394.31L741.76 394.31L741.76 417.84L671.18 417.84L671.18 300.20L741.76 300.20L741.76 323.72L694.71 323.72L694.71 347.25L730.00 347.25L730.00 370.78L694.71 370.78ZM826.47 400.20L826.47 388.43L820.59 388.43L820.59 376.67L814.71 376.67L814.71 364.90L808.82 364.90L808.82 353.14L802.94 353.14L802.94 417.84L779.41 417.84L779.41 300.20L808.82 300.20L808.82 311.96L814.71 311.96L814.71 323.72L820.59 323.72L820.59 335.49L826.47 335.49L826.47 347.25L832.35 347.25L832.35 359.02L838.24 359.02L838.24 370.78L844.12 370.78L844.12 300.20L867.65 300.20L867.65 417.84L838.24 417.84L838.24 411.96L832.35 411.96L832.35 400.20L826.47 400.20ZM905.29 323.72L905.29 300.20L975.88 300.20L975.88 323.72L952.35 323.72L952.35 417.84L928.82 417.84L928.82 323.72L905.29 323.72ZM1013.53 417.84L1013.53 300.20L1037.06 300.20L1037.06 417.84L1013.53 417.84ZM1104.12 388.43L1104.12 394.31L1121.76 394.31L1121.76 388.43L1127.65 388.43L1127.65 376.67L1151.18 376.67L1151.18 400.20L1145.29 400.20L1145.29 411.96L1133.53 411.96L1133.53 417.84L1092.35 417.84L1092.35 411.96L1080.59 411.96L1080.59 400.20L1074.71 400.20L1074.71 317.84L1080.59 317.84L1080.59 306.08L1092.35 306.08L1092.35 300.20L1133.53 300.20L1133.53 306.08L1145.29 306.08L1145.29 317.84L1151.18 317.84L1151.18 341.37L1127.65 341.37L1127.65 329.61L1121.76 329.61L1121.76 323.72L1104.12 323.72L1104.12 329.61L1098.24 329.61L1098.24 388.43L1104.12 388.43Z" fill="#00FFA3" /></svg>