<svg xmlns="http://www.w3.org/2000/svg">
<!-- Noctis Brand Kit 10-elements: word-zone-cyan.svg, word-swap-magenta.svg. Outlines verbatim; colours come from the page. Built by local/tools/build-brand-assets.py. -->
<symbol id="np-zone" viewBox="5 55 770 150"><path fill="currentColor" d="M132.40 200L7 200L7 175.20L77.60 91.40L8.80 91.40L8.80 60L129.40 60L129.40 84.80L58.80 168.60L132.40 168.60L132.40 200ZM280.40 202.80L280.40 202.80Q263.60 202.80 249.40 197.40Q235.20 192 224.70 182.10Q214.20 172.20 208.40 159Q202.60 145.80 202.60 130L202.60 130Q202.60 114.20 208.40 101Q214.20 87.80 224.70 77.90Q235.20 68 249.40 62.60Q263.60 57.20 280.40 57.20L280.40 57.20Q297.40 57.20 311.50 62.60Q325.60 68 336 77.90Q346.40 87.80 352.30 101Q358.20 114.20 358.20 130L358.20 130Q358.20 145.80 352.30 159.10Q346.40 172.40 336 182.20Q325.60 192 311.50 197.40Q297.40 202.80 280.40 202.80ZM280.40 170L280.40 170Q288.40 170 295.30 167.20Q302.20 164.40 307.30 159.10Q312.40 153.80 315.30 146.40Q318.20 139 318.20 130L318.20 130Q318.20 120.80 315.30 113.50Q312.40 106.20 307.30 100.90Q302.20 95.60 295.30 92.80Q288.40 90 280.40 90L280.40 90Q272.40 90 265.50 92.80Q258.60 95.60 253.50 100.90Q248.40 106.20 245.50 113.50Q242.60 120.80 242.60 130L242.60 130Q242.60 139 245.50 146.40Q248.40 153.80 253.50 159.10Q258.60 164.40 265.50 167.20Q272.40 170 280.40 170ZM477.80 200L439 200L439 60L471.60 60L533.40 134.60L533.40 60L572.20 60L572.20 200L539.60 200L477.80 125.40L477.80 200ZM772.60 200L660.20 200L660.20 60L770 60L770 90.60L699.40 90.60L699.40 114.20L761.60 114.20L761.60 143.80L699.40 143.80L699.40 169.40L772.60 169.40L772.60 200Z"/></symbol>
<symbol id="np-swap" viewBox="-7 54 775 151"><path fill="currentColor" d="M56 203.20L56 203.20Q43.60 203.20 32.20 201.40Q20.80 199.60 11.50 196.30Q2.20 193-4.60 189L-4.60 189L13.60 154.20Q21.40 158.60 29.30 161.50Q37.20 164.40 45.10 165.80Q53 167.20 60.80 167.20L60.80 167.20Q67 167.20 71.10 166.20Q75.20 165.20 77.30 163.30Q79.40 161.40 79.40 159L79.40 159Q79.40 155.80 75.80 153.80Q72.20 151.80 66.30 150.20Q60.40 148.60 53.30 146.90Q46.20 145.20 39 142.50Q31.80 139.80 25.90 135.60Q20 131.40 16.40 125Q12.80 118.60 12.80 109.40L12.80 109.40Q12.80 93.40 21.30 81.60Q29.80 69.80 45.70 63.30Q61.60 56.80 83.60 56.80L83.60 56.80Q99.20 56.80 112.70 59.90Q126.20 63 136 68.80L136 68.80L119 103.20Q110.60 98 100.70 95.40Q90.80 92.80 80.60 92.80L80.60 92.80Q73.80 92.80 69.20 94.10Q64.60 95.40 62.30 97.60Q60 99.80 60 102.20L60 102.20Q60 105.40 63.60 107.50Q67.20 109.60 73.20 111.10Q79.20 112.60 86.30 114.30Q93.40 116 100.50 118.50Q107.60 121 113.60 125.10Q119.60 129.20 123.20 135.50Q126.80 141.80 126.80 151L126.80 151Q126.80 166.60 118.20 178.30Q109.60 190 93.70 196.60Q77.80 203.20 56 203.20ZM245 200L194.40 200L177.60 60L224.20 60L233.20 139.80L274.80 60L318.20 60L326.20 141L368.40 60L414.80 60L342 200L291.40 200L283.40 126.20L245 200ZM462 200L412.20 200L501.40 60L547.80 60L581 200L534 200L529.40 175.60L476 175.60L462 200ZM495.40 141.60L522.80 141.60L516 105.80L495.40 141.60ZM663.80 200L616.60 200L644.60 60L706.80 60Q735 60 750.30 72.20Q765.60 84.40 765.60 106.40L765.60 106.40Q765.60 124 756.90 137.40Q748.20 150.80 732.30 158.20Q716.40 165.60 694.80 165.60L694.80 165.60L670.60 165.60L663.80 200ZM684.40 96.40L677.80 129.20L697.20 129.20Q707 129.20 712.40 124.30Q717.80 119.40 717.80 110.60L717.80 110.60Q717.80 103 713.10 99.70Q708.40 96.40 700.20 96.40L700.20 96.40L684.40 96.40Z"/></symbol>
</svg>
